<?xml version="1.0" ?><svg id="Layer_1" style="enable-background:new 0 0 70 70;" version="1.1" viewBox="0 0 70 70" 
xml:space="preserve" xmlns="http://www.w3.org/2000/svg" xmlns:xlink="http://www.w3.org/1999/xlink"><style type="text/css">
	.st0{fill:#FFFFFF;}
	.st2{fill:#FFFFFF;}
	.st10{fill:#FFFFFF;}
	.st11{fill:#FFFFFF;}
	.st12{fill:#FFFFFF;}
</style><g><g><g><path class="st11" d="M52.2,48.4h-0.8V23.8h-5.1v24.6h-4.2V30.9h-5.1v17.5h-4.2V36h-5.1v12.4h-4.2v-5h-5.1v5h-0.8     c-0.9,0-1.6,0.7-1.6,1.6c0,0.9,0.7,1.6,1.6,1.6h34.4c0.9,0,1.6-0.7,1.6-1.6C53.8,49.1,53.1,48.4,52.2,48.4z"/><path class="st11" d="M20,35.9l19.7-15.5l-0.3,2.3c-0.1,0.8,0.3,1.6,1.1,1.8c0.9,0.3,1.9-0.4,2-1.3l0.7-6.1     c0.1-0.9-0.5-1.6-1.4-1.7l-6-0.7c-0.8-0.1-1.6,0.3-1.8,1.1c-0.3,1,0.4,1.9,1.3,2l2.4,0.3L18.1,33.4c-0.7,0.5-0.8,1.5-0.3,2.2     C18.4,36.3,19.4,36.4,20,35.9z"/></g><g class="st4">
<path class="st2" d="M36.9,48.4h-4V36h-5.1v12.4h-4.2v-5h-5.1v5h-0.8c-0.9,0-1.6,0.7-1.6,1.6c0,0.9,0.7,1.6,1.6,1.6h19.2V48.4z"/>
<path class="st2" d="M36.9,18.6L18.1,33.4c-0.7,0.5-0.8,1.5-0.3,2.2c0.5,0.7,1.5,0.8,2.2,0.3l16.9-13.3V18.6z"/>
<path class="st2" d="M35.4,17.6l1.5,0.2v-3.2l-1-0.1c-0.8-0.1-1.6,0.3-1.8,1.1C33.8,16.6,34.5,17.5,35.4,17.6z"/></g></g></g></svg>