<?xml version="1.0" encoding="utf-8"?>
<!-- Svg Vector Icons : http://www.onlinewebfonts.com/icon -->
<!DOCTYPE svg PUBLIC "-//W3C//DTD SVG 1.1//EN" "http://www.w3.org/Graphics/SVG/1.1/DTD/svg11.dtd">
<svg version="1.1" xmlns="http://www.w3.org/2000/svg" xmlns:xlink="http://www.w3.org/1999/xlink" x="0px" y="0px" viewBox="0 0 1000 1000" enable-background="new 0 0 1000 1000" xml:space="preserve">
<metadata> Svg Vector Icons : http://www.onlinewebfonts.com/icon </metadata>
<g><g transform="translate(0.000000,512.000000) scale(0.100000,-0.100000)"><path d="M4645.7,5002.4c-1130.5-116.9-2161.4-841.2-2653.8-1866.3c-383.2-793.3-438.8-1691.9-155.2-2538.9c176.3-525,477.1-990.6,1379.6-2125c707.1-891,971.5-1276.2,1228.2-1793.5c86.2-174.4,189.7-419.6,237.6-565.3c78.6-241.4,164.8-615.1,164.8-718.6c0-124.5,103.5-206.9,208.8-162.9c67.1,26.8,88.2,74.7,116.9,277.8c84.3,582.5,341.1,1193.8,772.2,1839.5c210.8,316.2,413.9,586.3,875.7,1168.8c871.8,1096,1166.9,1554,1343.2,2079c385.2,1151.6,138,2379.8-661.1,3297.7c-170.5,197.4-431.1,419.6-686,586.3C6186.3,4895.1,5406.4,5080.9,4645.7,5002.4z M4084.3,3375.6c557.6-172.5,730-850.8,320-1262.7c-440.7-438.8-1170.8-201.2-1285.7,415.8c-42.2,229.9,40.2,482.9,214.6,655.3C3538.2,3390.9,3812.2,3459.9,4084.3,3375.6z M6862.7,2825.6c13.4-40.2,24.9-141.8,24.9-226.1c0-132.2-9.6-172.5-61.3-279.8c-82.4-176.3-174.4-272.1-344.9-356.4c-134.1-65.1-157.1-70.9-310.4-70.9c-145.6,0-180.1,7.7-293.2,59.4c-343,160.9-515.4,544.2-396.7,883.3l21.1,61.3H6169h666.8L6862.7,2825.6z M6506.3,982.3c84.3-51.7,134.1-183.9,105.4-275.9c-49.8-145.6-32.6-139.9-1235.9-463.7c-611.2-162.9-1140.1-297-1178.4-297c-155.2,0-281.7,166.7-233.8,312.3c47.9,143.7,34.5,139.9,1228.2,461.8c605.5,162.9,1136.3,297,1178.4,297C6414.3,1018.7,6471.8,1003.4,6506.3,982.3z"/></g></g>
</svg>