<?xml version="1.0" encoding="utf-8"?>
<!-- Svg Vector Icons : http://www.onlinewebfonts.com/icon -->
<!DOCTYPE svg PUBLIC "-//W3C//DTD SVG 1.1//EN" "http://www.w3.org/Graphics/SVG/1.1/DTD/svg11.dtd">
<svg version="1.1" xmlns="http://www.w3.org/2000/svg" xmlns:xlink="http://www.w3.org/1999/xlink" x="0px" y="0px" viewBox="0 0 1000 1000" enable-background="new 0 0 1000 1000" xml:space="preserve">
<metadata> Svg Vector Icons : http://www.onlinewebfonts.com/icon </metadata>
<g><g transform="translate(0.000000,512.000000) scale(0.100000,-0.100000)"><path fill="#F60000" d="M4646.8,5002.6c-502-51.7-1038.6-243.3-1462-521.2C1906.7,3644,1358.6,2103.4,1820.4,645.2C1989,114.4,2311-387.6,3217.3-1527.7c707.1-891,971.5-1276.2,1228.3-1793.5c86.2-174.4,189.7-419.6,237.6-565.3c78.6-241.4,164.8-615.1,164.8-718.6c0-124.6,103.5-206.9,208.9-162.9c67.1,26.8,88.1,74.7,116.9,277.8c55.6,390.9,210.8,845,435,1274.3c233.8,448.4,525,869.9,1094.1,1582.8C7450.1-692.3,7804.6-194.1,7992.4,179.6c458,912.1,465.7,2023.5,21.1,2949c-442.6,921.7-1304.9,1600-2303.2,1814.6C5365.3,5017.9,4993.6,5039,4646.8,5002.6z M4198.4,3285.7c400.5-197.4,540.4-689.8,300.8-1063.5c-76.6-120.7-170.5-201.2-321.9-272.1c-111.1-51.7-143.7-59.4-297-59.4c-147.5,0-189.7,7.7-283.6,51.7c-308.5,143.7-469.5,406.2-448.4,728.1c19.2,297,184,521.2,471.4,641.9c90.1,38.3,134.1,44.1,279.8,40.2C4050.8,3347,4089.2,3339.3,4198.4,3285.7z M6440.3,3285.7c400.5-197.4,540.4-689.8,300.8-1063.5c-76.7-120.7-170.5-201.2-321.9-272.1c-111.1-51.7-143.7-59.4-298.9-59.4c-161,0-182,3.8-318.1,72.8c-166.7,82.4-272.1,187.8-354.5,356.4c-47.9,95.8-53.7,128.4-53.7,298.9c0,168.6,5.7,205,51.7,300.8c88.1,189.7,275.9,354.5,475.2,419.6c26.8,9.6,126.5,13.4,220.4,11.5C6292.8,3347,6331.1,3339.3,6440.3,3285.7z M5355.8,746.8c544.2-82.4,1101.8-435,1421.8-900.6c147.6-212.7,147.6-216.5-17.2-141.8C5716,183.4,4434.1,214.1,3382.1-219c-293.2-120.7-287.4-118.8-258.7-63.2c97.7,189.7,402.4,515.4,628.5,670.7C4217.5,712.3,4773.2,834.9,5355.8,746.8z"/></g></g>
</svg>