<?xml version="1.0" standalone="no"?>
<!DOCTYPE svg PUBLIC "-//W3C//DTD SVG 20010904//EN"
 "http://www.w3.org/TR/2001/REC-SVG-20010904/DTD/svg10.dtd">
<svg version="1.0" xmlns="http://www.w3.org/2000/svg"
 width="215.000000pt" height="281.000000pt" viewBox="0 0 215.000000 281.000000"
 preserveAspectRatio="xMidYMid meet">

<g transform="translate(0.000000,281.000000) scale(0.100000,-0.100000)"
fill="#000000" stroke="none">
<path d="M947 2440 c-194 -41 -354 -152 -464 -322 -59 -92 -89 -168 -108 -274
-20 -114 -19 -156 6 -277 45 -226 184 -414 377 -511 121 -60 272 -92 396 -82
272 21 499 172 617 411 215 440 -36 957 -514 1056 -114 23 -196 23 -310 -1z
m332 -100 c189 -53 334 -176 416 -355 44 -94 58 -163 58 -270 0 -258 -144
-482 -378 -590 -94 -44 -161 -58 -269 -58 -249 1 -475 140 -581 358 -48 98
-65 173 -65 288 0 189 55 322 190 458 91 92 177 144 290 173 84 22 250 20 339
-4z"/>
<path d="M885 1985 c-42 -22 -55 -43 -55 -87 0 -43 31 -83 73 -93 36 -9 95 19
108 52 31 83 -51 167 -126 128z"/>
<path d="M1254 1986 c-71 -31 -84 -98 -30 -152 37 -37 62 -42 106 -19 35 18
50 43 50 85 0 42 -15 67 -50 85 -35 18 -36 18 -76 1z"/>
<path d="M780 1495 l0 -45 335 0 335 0 0 45 0 45 -335 0 -335 0 0 -45z"/>
</g>
</svg>
