<?xml version="1.0" encoding="utf-8"?>
<!-- Svg Vector Icons : http://www.onlinewebfonts.com/icon -->
<!DOCTYPE svg PUBLIC "-//W3C//DTD SVG 1.1//EN" "http://www.w3.org/Graphics/SVG/1.1/DTD/svg11.dtd">
<svg version="1.1" xmlns="http://www.w3.org/2000/svg" xmlns:xlink="http://www.w3.org/1999/xlink" x="0px" y="0px" viewBox="0 0 1000 1000" enable-background="new 0 0 1000 1000" xml:space="preserve">
<metadata> Svg Vector Icons : http://www.onlinewebfonts.com/icon </metadata>
<g><g transform="translate(0.000000,511.000000) scale(0.100000,-0.100000)"><path fill="#F60000" d="M4624.6,4997.8c-783.1-81.8-1539.7-415.1-2122.4-932.4c-623.6-554.1-1053-1314.7-1210.5-2146.9c-65.4-351.7-65.4-952.8,2-1316.8c57.3-314.9,206.5-774.9,347.6-1071.4c314.9-668.6,742.2-1247.3,1801.4-2435.3c730-817.9,1106.2-1282,1410.8-1733.9c130.9-192.2,157.4-196.3,255.6-38.8c102.2,161.5,523.4,713.6,750.4,985.5c118.6,141.1,439.6,509.1,713.6,817.9c703.4,793.3,954.9,1096,1241.1,1494.7c707.5,989.6,1030.5,2040.6,922.2,3020c-184,1686.9-1441.5,3032.3-3103.9,3318.6C5358.7,5005.9,4878.2,5024.3,4624.6,4997.8z M5268.7,4006.1c251.5-65.4,439.6-206.5,554.1-417.1c83.8-155.4,112.5-284.2,126.8-564.3c12.3-200.4,20.4-251.5,51.1-282.2c20.4-20.4,45-59.3,51.1-87.9c32.7-130.9-55.2-400.8-157.4-486.6c-32.7-28.6-75.6-94.1-98.1-149.3c-40.9-106.3-130.8-265.8-233.1-413c-51.1-73.6-63.4-116.5-71.6-235.1c-8.2-137-6.1-151.3,49.1-214.7c77.7-94.1,470.3-267.9,1320.9-584.8c143.1-53.2,276-114.5,296.5-137c30.7-34.8,36.8-85.9,42.9-349.7c8.2-359.9-2-431.4-67.5-496.9l-49.1-49.1H5002.9c-2277.8,0-2140.8-8.2-2191.9,118.6c-18.4,40.9-22.5,167.7-18.4,398.7c6.1,308.8,10.2,343.5,47,380.3c22.5,22.5,261.7,124.7,531.6,229c674.7,257.6,991.7,396.7,1061.2,466.2c40.9,40.9,61.3,85.9,67.5,151.3c16.3,145.2-6.1,218.8-128.8,411c-61.3,98.1-137,235.1-167.7,304.7c-30.7,69.5-79.8,147.2-108.4,171.8c-151.3,128.8-212.6,539.8-87.9,586.8c20.4,8.2,28.6,49.1,28.6,149.3c0,271.9,36.8,476.4,112.5,633.9c120.6,245.4,300.6,392.6,568.4,466.2C4857.7,4042.9,5123.6,4044.9,5268.7,4006.1z"/></g></g>
</svg>