<?xml version="1.0" standalone="no"?>
<!DOCTYPE svg PUBLIC "-//W3C//DTD SVG 20010904//EN"
 "http://www.w3.org/TR/2001/REC-SVG-20010904/DTD/svg10.dtd">
<svg version="1.0" xmlns="http://www.w3.org/2000/svg"
 width="215.000000pt" height="281.000000pt" viewBox="0 0 215.000000 281.000000"
 preserveAspectRatio="xMidYMid meet">

<g transform="translate(0.000000,281.000000) scale(0.100000,-0.100000)"
fill="#000000" stroke="none">
<path d="M893 2786 c-414 -79 -752 -379 -859 -762 -22 -78 -30 -292 -15 -381
66 -381 422 -949 959 -1531 l95 -103 35 33 c69 65 275 302 391 448 349 439
547 791 622 1105 18 77 20 111 16 235 -4 123 -8 158 -32 230 -54 168 -140 304
-268 427 -150 144 -305 229 -517 285 -99 26 -326 33 -427 14z m362 -407 c138
-46 293 -183 355 -313 91 -191 77 -432 -36 -602 -112 -170 -277 -268 -474
-281 -122 -8 -214 10 -322 64 -251 126 -383 404 -324 683 47 222 229 408 452
465 89 22 259 14 349 -16z"/>
<path d="M809 2051 c-36 -36 -37 -70 -3 -110 51 -61 144 -26 144 54 0 79 -84
112 -141 56z"/>
<path d="M1199 2051 c-56 -57 -23 -141 56 -141 80 0 115 93 54 144 -40 34 -74
33 -110 -3z"/>
<path d="M987 1700 c-95 -24 -217 -122 -234 -188 -13 -55 42 -83 74 -37 74
107 138 145 243 145 47 0 79 -7 115 -24 51 -23 108 -78 120 -115 13 -42 85
-35 85 8 0 25 -52 102 -91 135 -80 68 -213 100 -312 76z"/>
</g>
</svg>
