<?xml version="1.0" encoding="utf-8"?>
<!-- Svg Vector Icons : http://www.onlinewebfonts.com/icon -->
<!DOCTYPE svg PUBLIC "-//W3C//DTD SVG 1.1//EN" "http://www.w3.org/Graphics/SVG/1.1/DTD/svg11.dtd">
<svg version="1.1" xmlns="http://www.w3.org/2000/svg" xmlns:xlink="http://www.w3.org/1999/xlink" x="0px" y="0px" viewBox="0 0 1000 1000" enable-background="new 0 0 1000 1000" xml:space="preserve">
<metadata> Svg Vector Icons : http://www.onlinewebfonts.com/icon </metadata>
<g><g transform="translate(0.000000,512.000000) scale(0.100000,-0.100000)"><path d="M4645.7,5002.4c-1130.5-116.9-2161.4-841.2-2653.8-1866.3c-383.2-793.3-438.8-1691.9-155.2-2538.9c176.3-525,477.1-990.6,1379.6-2125c707.1-891,971.5-1276.2,1228.2-1793.5c86.2-174.4,189.7-419.6,237.6-565.3c78.6-241.4,164.8-615.1,164.8-718.6c0-124.5,103.5-206.9,208.8-162.9c67.1,26.8,88.2,74.7,116.9,277.8c84.3,582.5,341.1,1193.8,772.2,1839.5c210.8,316.2,413.9,586.3,875.7,1168.8c871.8,1096,1166.9,1554,1343.2,2079c385.2,1151.6,138,2379.8-661.1,3297.7c-170.5,197.4-431.1,419.6-686,586.3C6186.3,4895.1,5406.4,5080.9,4645.7,5002.4z M4092,3402.4c55.6-15.3,149.5-63.2,212.7-109.2c306.6-226.1,396.6-655.3,206.9-981.1c-69-115-220.4-252.9-350.6-312.3c-95.8-44.1-134.1-51.7-300.8-51.7c-178.2,0-201.2,3.8-320,63.2c-471.4,231.9-578.7,841.2-208.9,1209.1C3532.4,3423.5,3793,3484.8,4092,3402.4z M6400.9,3394.7c502-187.8,655.3-816.3,291.3-1207.2c-70.9-76.7-147.5-134.1-231.9-176.3c-118.8-59.4-141.8-63.2-320-63.2s-201.2,3.8-320,63.2c-471.4,231.9-578.7,841.2-210.8,1209.1C5816.5,3427.3,6128.8,3496.3,6400.9,3394.7z M6343.4,350c67.1-65.1,74.7-84.3,74.7-166.7c0-116.9-53.7-210.8-143.7-249.1c-97.7-40.2-2450.7-40.2-2548.5,0c-90.1,38.3-143.7,132.2-143.7,249.1c0,82.4,7.7,101.6,74.7,166.7l74.7,74.7h1268.5h1268.5L6343.4,350z"/></g></g>
</svg>