<?xml version="1.0" standalone="no"?>
<!DOCTYPE svg PUBLIC "-//W3C//DTD SVG 20010904//EN"
 "http://www.w3.org/TR/2001/REC-SVG-20010904/DTD/svg10.dtd">
<svg version="1.0" xmlns="http://www.w3.org/2000/svg"
 width="216.000000pt" height="281.000000pt" viewBox="0 0 216.000000 281.000000"
 preserveAspectRatio="xMidYMid meet">

<g transform="translate(0.000000,281.000000) scale(0.100000,-0.100000)"
fill="#000000" stroke="none">
<path d="M1020 2511 c-280 -39 -519 -239 -607 -508 -19 -58 -27 -107 -30 -188
-6 -146 12 -230 77 -362 87 -176 234 -304 425 -369 159 -54 376 -42 540 30
131 58 264 181 329 305 61 117 89 229 90 361 1 134 -15 205 -73 325 -43 90
-145 214 -220 269 -136 100 -366 159 -531 137z m280 -130 c185 -58 337 -208
408 -403 23 -64 27 -88 27 -198 0 -105 -4 -136 -23 -191 -58 -167 -166 -290
-327 -370 -309 -154 -680 -28 -829 283 -24 51 -49 117 -55 146 -15 75 -13 227
4 292 90 338 461 544 795 441z"/>
<path d="M710 1931 c-80 -25 -127 -71 -116 -116 10 -38 49 -43 94 -11 48 33
76 33 114 1 32 -27 49 -30 79 -15 52 28 -4 118 -86 139 -49 12 -50 12 -85 2z"/>
<path d="M1465 1933 c-53 -9 -67 -15 -100 -44 -77 -68 -16 -150 63 -84 38 32
73 32 103 0 32 -33 73 -33 95 0 15 22 15 29 3 51 -26 50 -105 86 -164 77z"/>
<path d="M669 1646 c-18 -39 -3 -72 60 -135 160 -160 436 -195 656 -84 61 31
98 62 142 116 56 72 53 127 -7 127 -21 0 -37 -13 -73 -59 -37 -48 -60 -66
-123 -98 l-78 -38 -130 0 c-112 1 -139 4 -187 23 -64 25 -137 85 -169 137 -27
44 -74 49 -91 11z"/>
</g>
</svg>
